<?xml version="1.0" encoding="UTF-8"?>
<svg width="40px" height="40px" viewBox="0 0 40 40" version="1.1" xmlns="http://www.w3.org/2000/svg" xmlns:xlink="http://www.w3.org/1999/xlink">
    <!-- Generator: Sketch 42 (36781) - http://www.bohemiancoding.com/sketch -->
    <title>Icon /AddBook</title>
    <desc>Created with Sketch.</desc>
    <defs></defs>
    <g id="Symbols" stroke="none" stroke-width="1" fill="none" fill-rule="evenodd">
        <g id="Icon-/AddBook" fill-rule="nonzero" fill="#FFFFFF">
            <path d="M10.0020926,39.6461653 C9.72794159,39.8764823 9.38471346,40 9.03250328,40 C8.80201224,40 8.572723,39.9467291 8.36336669,39.8425632 C7.83316267,39.5779674 7.5,39.0265329 7.5,38.4255837 L7.5,2.82489921 C7.5,1.27087478 8.72096135,0 10.2332896,0 L29.7667104,0 C31.2790386,0 32.5,1.27087478 32.5,2.82489921 L32.5,38.4255837 C32.5,39.0265329 32.1668373,39.5779674 31.6336922,39.844019 C31.0962763,40.1078224 30.457468,40.0314206 29.9981433,39.6439065 L19.9985218,31.2536228 L10.0020926,39.6461653 Z M19.9984273,28.1473837 C20.2288336,28.1473837 20.4560944,28.2276373 20.6463958,28.3840501 L29.9357798,36.1768436 L29.9357798,2.82489921 C29.9357798,2.73236183 29.8555701,2.64883252 29.7667104,2.64883252 L10.2301442,2.64883252 C10.1412844,2.64883252 10.0610747,2.72908618 10.0610747,2.82489921 L10.0610747,36.1801193 L19.3473132,28.3873257 C19.5376147,28.2243617 19.768021,28.1473837 19.9984273,28.1473837 Z M21.5301442,20.1949017 C21.5301442,21.0610983 20.8485671,21.7701369 19.9984273,21.7701369 C19.1482875,21.7701369 18.4667104,21.0610983 18.4667104,20.1949017 L18.4667104,16.971296 L15.3910878,16.971296 C14.5417352,16.971296 13.8585845,16.2606196 13.8585845,15.3968797 C13.8585845,14.5330965 14.5417621,13.8216445 15.3910878,13.8216445 L18.4667104,13.8216445 L18.4667104,10.5988577 C18.4667104,9.73503094 19.1491281,9.02362254 19.9984273,9.02362254 C20.8477265,9.02362254 21.5301442,9.73503094 21.5301442,10.5988577 L21.5301442,13.8216445 L24.6057667,13.8216445 C25.4550925,13.8216445 26.13827,14.5330965 26.13827,15.3968797 C26.13827,16.2615263 25.457425,16.971296 24.6057667,16.971296 L21.5301442,16.971296 L21.5301442,20.1949017 Z" id="Page-1"></path>
        </g>
    </g>
</svg>