<?xml version="1.0" encoding="UTF-8"?>
<svg width="40px" height="40px" viewBox="0 0 40 40" version="1.1" xmlns="http://www.w3.org/2000/svg" xmlns:xlink="http://www.w3.org/1999/xlink">
    <!-- Generator: Sketch 42 (36781) - http://www.bohemiancoding.com/sketch -->
    <title>Icon /Book</title>
    <desc>Created with Sketch.</desc>
    <defs></defs>
    <g id="Symbols" stroke="none" stroke-width="1" fill="none" fill-rule="evenodd">
        <g id="Icon-/Book" fill="#FFFFFF">
            <path d="M9.33333333,0.000104230504 C6.43081481,0.000104230504 4,2.43091271 4,5.33342367 L4,35.5555671 C4,37.9952645 6.00474074,40 8.44444444,40 L34.6666667,40 C35.3659259,40 36,39.3659276 36,38.6666701 L36,9.33341324 C35.9952593,8.55119306 35.4281481,7.99297229 34.6666667,8.00008338 C33.3842963,8.00008338 32,6.6157907 32,5.33342367 C32,4.05105664 33.3842963,2.66676395 34.6666667,2.66676395 C35.3706667,2.67624541 36,2.03743226 36,1.33343409 C36,0.629435924 35.3706667,-0.00937722627 34.6666667,0.000104230504 L9.33333333,0.000104230504 Z M9.33333333,2.66676395 L30.0693333,2.66676395 C29.6041481,3.45609522 29.3333333,4.36809285 29.3333333,5.33342367 C29.3333333,6.29875448 29.6041481,7.21075211 30.0693333,8.00008338 L9.33333333,8.00008338 C8.05096296,8.00008338 6.66666667,6.6157907 6.66666667,5.33342367 C6.66666667,4.05105664 8.05096296,2.66676395 9.33333333,2.66676395 Z M6.66666667,9.93074502 C7.45362963,10.395929 8.37037037,10.6667431 9.33333333,10.6667431 L17.3333333,10.6667431 L17.3333333,20.8889387 C17.3404444,21.9627137 18.5511111,22.5878972 19.4305185,21.9721951 L23.1111111,19.3890907 L26.7917037,21.9721951 C27.6711111,22.5878972 28.8817778,21.9627137 28.8888889,20.8889387 L28.8888889,10.6667431 L33.3333333,10.6667431 L33.3333333,37.3333403 L8.44444444,37.3333403 C7.43762963,37.3333403 6.66666667,36.5623793 6.66666667,35.5555671 L6.66666667,9.93074502 Z M20,10.6667431 L26.2222222,10.6667431 L26.2222222,18.3194639 L23.874963,16.6803571 C23.4168889,16.3585801 22.8053333,16.3585801 22.3472593,16.6803571 L20,18.3194639 L20,10.6667431 Z" id="Page-1"></path>
        </g>
    </g>
</svg>