<?xml version="1.0" encoding="utf-8"?>
<!DOCTYPE svg PUBLIC "-//W3C//DTD SVG 1.1//EN" "http://www.w3.org/Graphics/SVG/1.1/DTD/svg11.dtd">
<svg version="1.1" xmlns="http://www.w3.org/2000/svg" xmlns:xlink="http://www.w3.org/1999/xlink" x="0px" y="0px" viewBox="10 10 44 44" xml:space="preserve">
  <g>
    <g>
      <path fill="#BC8D5E" d="M26,51h-5c-2.8,0-5-2.2-5-5V17h10V51z"/>
    </g>
    <g>
      <path fill="#BC8D5E" d="M46,22H20.5C18,22,16,20,16,17.5v0c0-2.5,2-4.5,4.5-4.5H45c0.6,0,1,0.4,1,1V22z"/>
    </g>
    <g>
      <path fill="#F9F7ED" d="M44,20H20.5c-1.4,0-2.5-1.1-2.5-2.5v0c0-1.4,1.1-2.5,2.5-2.5H44V20z"/>
    </g>
    <g>
      <path fill="#F4BD5B" d="M47,51H22V20h25c0.6,0,1,0.4,1,1v29C48,50.6,47.6,51,47,51z"/>
    </g>
    <g>
      <path fill="#E5A65C" d="M42.5,43h-15c-0.3,0-0.5-0.2-0.5-0.5v0c0-0.3,0.2-0.5,0.5-0.5h15c0.3,0,0.5,0.2,0.5,0.5v0C43,42.7,42.8,43,42.5,43z"/>
    </g>
    <g>
      <path fill="#E5A65C" d="M40,46H30c-0.3,0-0.5-0.2-0.5-0.5l0,0c0-0.3,0.2-0.5,0.5-0.5h10c0.3,0,0.5,0.2,0.5,0.5l0,0C40.5,45.8,40.3,46,40,46z"/>
    </g>
    <g>
      <rect x="21.1" y="20" fill="#E5A65C" width="2.9" height="31"/>
    </g>
    <g>
      <path fill="#F25353" d="M32,18h-5c-1.1,0-2,0.9-2,2h1.9v12l3.5-2l3.6,2V20C34,18.9,33.1,18,32,18z"/>
    </g>
  </g>
</svg>
