<svg xmlns="http://www.w3.org/2000/svg" xmlns:xlink="http://www.w3.org/1999/xlink" version="1.1" x="0px" y="0px" viewBox="0 0 24 24" style="enable-background:new 0 0 24 24;" xml:space="preserve">
  <g fill="#ffffff">
    <path
      d="M5.515,2.883c-0.132,0-0.259,0.054-0.351,0.149L3.02,5.253C2.932,5.344,2.883,5.465,2.883,5.592v15.037   c0,0.269,0.218,0.488,0.488,0.488h17.258c0.269,0,0.488-0.219,0.488-0.488V3.371c0-0.269-0.218-0.488-0.488-0.488H5.515z    M9.158,3.859h6.795V6.6H9.158V3.859z M20.141,20.141H3.859V5.789l1.864-1.93h2.46v3.229c0,0.269,0.218,0.488,0.488,0.488h7.771   c0.269,0,0.488-0.219,0.488-0.488V3.859h3.213V20.141z"></path>
    <path
      d="M12.555,10.233c-1.959,0-3.553,1.594-3.553,3.554s1.594,3.554,3.553,3.554s3.554-1.594,3.554-3.554   S14.515,10.233,12.555,10.233z M12.555,16.365c-1.421,0-2.578-1.156-2.578-2.578s1.156-2.578,2.578-2.578s2.578,1.156,2.578,2.578   S13.977,16.365,12.555,16.365z"></path>
  </g>
</svg>
