<?xml version="1.0" encoding="UTF-8"?>
<svg width="40px" height="40px" viewBox="0 0 40 40" version="1.1" xmlns="http://www.w3.org/2000/svg" xmlns:xlink="http://www.w3.org/1999/xlink">
    <!-- Generator: Sketch 42 (36781) - http://www.bohemiancoding.com/sketch -->
    <title>Icon /SignOut</title>
    <desc>Created with Sketch.</desc>
    <defs></defs>
    <g id="Symbols" stroke="none" stroke-width="1" fill="none" fill-rule="evenodd">
        <g id="Icon-/SignOut" fill="#FFFFFF">
            <path d="M35.4832787,1.01994828 C36.292459,0.979292541 36.7947541,1.13273516 36.797377,2.19830893 L36.797377,38.7688007 C36.8,39.885522 36.5665574,39.9465057 35.4859016,39.9465057 C27.3606557,39.9465057 11.3029508,39.9596204 11.1055738,39.9465057 C9.89377049,39.8750302 9.7042623,38.8094565 9.74295082,37.4468335 C9.79934426,35.3976532 9.76065574,33.343227 9.76065574,31.2428991 L12.5731148,31.2428991 L12.5731148,37.2114237 L33.9180328,37.2114237 L33.9180328,3.74519418 L12.6170492,3.74519418 L12.6170492,9.89798107 L9.75081967,9.89798107 C9.75081967,9.89798107 9.72786885,5.49011221 9.73770492,3.5176532 C9.72786885,2.17011221 9.72983607,1.07109582 11.1029508,1.01994828 C12.1940984,0.979292541 27.2688525,1.01207943 35.4832787,1.01994828 Z M25.8190164,21.7884729 C25.5344262,21.7753581 4.74557377,21.765522 4.74295082,21.768145 C4.33311475,21.768145 4,21.4350302 4,21.0251942 L4,19.8009319 C4,19.3910958 4.33311475,19.0986368 4.74295082,19.0986368 L25.7980328,19.0861778 C25.6242623,18.8763417 25.5344262,18.7478171 25.4242623,18.6428991 C23.9796721,17.2750302 22.532459,15.9150302 21.0904918,14.5471614 C20.3167213,13.8120794 20.2144262,13.1025712 20.7829508,12.500604 C21.3540984,11.8960139 22.2760656,11.9268335 22.9960656,12.6028991 C25.3881967,14.8442106 27.7757377,17.085522 30.1580328,19.3347024 C30.9593443,20.0874893 30.9593443,20.7589647 30.1606557,21.5169975 C27.7836066,23.7733909 25.4013115,26.0199483 23.0137705,28.2638827 C22.8268852,28.4383089 22.6065574,28.5996204 22.3711475,28.6992925 C21.7436066,28.968145 21.0085246,28.7248663 20.6419672,28.1668335 C20.2885246,27.6284729 20.3527869,27.0166696 20.882623,26.5091286 C22.3790164,25.0750302 23.895082,23.6560139 25.4013115,22.2291286 C25.5193443,22.1189647 25.6242623,21.995686 25.8190164,21.7884729 Z" id="Combined-Shape"></path>
        </g>
    </g>
</svg>