<?xml version="1.0" standalone="no"?>
<!DOCTYPE svg PUBLIC "-//W3C//DTD SVG 20010904//EN"
 "http://www.w3.org/TR/2001/REC-SVG-20010904/DTD/svg10.dtd">
<svg version="1.0" xmlns="http://www.w3.org/2000/svg"
 width="16.000000pt" height="16.000000pt" viewBox="0 0 16.000000 16.000000"
 preserveAspectRatio="xMidYMid meet">
<metadata>
Created by potrace 1.11, written by Peter Selinger 2001-2013
</metadata>
<g transform="translate(0.000000,16.000000) scale(0.002286,-0.002286)"
fill="#000000" stroke="none">
<path d="M1541 6509 c-149 -29 -262 -90 -371 -199 -99 -98 -158 -200 -191
-327 -20 -77 -20 -107 -19 -2442 1 -2592 -3 -2428 60 -2580 90 -219 273 -381
512 -453 67 -20 99 -22 386 -26 l312 -4 0 2466 0 2466 -308 0 c-254 0 -318 3
-363 16 -148 44 -252 161 -279 315 -39 221 115 427 342 459 36 6 858 10 1926
10 l1862 0 0 -400 0 -400 161 0 160 0 -3 503 c-3 480 -4 503 -23 535 -11 18
-38 41 -60 52 -41 20 -68 20 -2051 19 -1105 -1 -2029 -5 -2053 -10z"/>
<path d="M2643 5720 c-133 -27 -253 -162 -253 -285 l0 -35 145 0 145 0 0 -950
c0 -554 4 -950 9 -950 5 0 123 66 262 146 140 81 264 151 276 156 18 9 63 -12
303 -146 154 -86 283 -156 286 -156 2 0 3 447 2 993 -3 989 -3 992 -24 1038
-46 100 -135 169 -238 188 -70 13 -849 13 -913 1z"/>
<path d="M2743 1898 c-46 -22 -49 -101 -5 -134 24 -18 2431 -20 2465 -2 52 27
62 83 22 123 l-24 25 -1218 -1 c-837 0 -1225 -4 -1240 -11z"/>
<path d="M3133 1415 c-45 -32 -36 -113 15 -134 19 -8 266 -11 845 -9 l819 3
19 24 c26 32 25 82 -4 109 l-23 22 -825 0 c-711 0 -827 -2 -846 -15z"/>
</g>
</svg>
