<svg xmlns="http://www.w3.org/2000/svg" xmlns:xlink="http://www.w3.org/1999/xlink" version="1.1" x="0px" y="0px" viewBox="0 0 100 100" style="enable-background:new 0 0 100 100;" xml:space="preserve">
  <g fill="white">
    <g>
      <path d="M18.1,23.4c-0.7,0-1.5-0.3-2-0.8c-1.2-1.1-1.3-3-0.2-4.2c2.9-3.2,6.2-5.9,9.9-8.2c1.4-0.9,3.3-0.4,4.1,1    c0.9,1.4,0.4,3.3-1,4.1c-3.2,2-6.1,4.3-8.6,7.1C19.7,23,18.9,23.4,18.1,23.4z"></path>
    </g>
    <g>
      <path d="M7.2,59.9c-1.4,0-2.7-1-3-2.5c-0.4-2.5-0.6-5.1-0.6-7.6c0-5.7,1-11.3,3-16.5c0.6-1.5,2.3-2.3,3.9-1.7    c1.5,0.6,2.3,2.3,1.7,3.9c-1.8,4.6-2.6,9.4-2.6,14.4c0,2.2,0.2,4.5,0.5,6.7c0.3,1.6-0.8,3.2-2.5,3.5C7.5,59.8,7.4,59.9,7.2,59.9z"></path>
    </g>
    <g>
      <path d="M91.5,65.2c-0.3,0-0.6,0-0.9-0.1c-1.6-0.5-2.5-2.1-2-3.7c0.6-2.1,1.1-4.2,1.4-6.4c0.2-1.6,1.7-2.8,3.4-2.6    c1.6,0.2,2.8,1.7,2.6,3.4c-0.3,2.5-0.8,5-1.6,7.4C94,64.4,92.8,65.2,91.5,65.2z"></path>
    </g>
    <g>
      <path d="M93,47.1c-1.5,0-2.8-1.1-3-2.6c-2.6-20-19.8-35.1-40-35.1c-3.2,0-6.3,0.4-9.4,1.1C39,10.8,37.3,9.8,37,8.2    c-0.4-1.6,0.6-3.2,2.2-3.6c3.5-0.8,7.1-1.3,10.8-1.3c23.2,0,43,17.3,46,40.3c0.2,1.6-0.9,3.1-2.6,3.4C93.2,47.1,93.1,47.1,93,47.1    z"></path>
    </g>
    <g>
      <path
        d="M74.8,88.9c-0.5,0-1-0.1-1.5-0.4c-1.4-0.8-1.9-2.7-1.1-4.1c0.1-0.1,7.4-13.1,7.4-34.7c0-5.4-1.4-10.6-4.1-15.2    c-0.8-1.4-0.4-3.3,1.1-4.1c1.4-0.8,3.3-0.4,4.1,1.1c3.2,5.5,4.9,11.7,4.9,18.2c0,23.3-7.9,37.1-8.3,37.7    C76.9,88.4,75.9,88.9,74.8,88.9z"></path>
    </g>
    <g>
      <path d="M17.3,52.7c-1.7,0-3-1.3-3-3C14.3,29.7,30,14,50,14c6.3,0,12.6,1.6,18,4.8c1.4,0.8,1.9,2.7,1.1,4.1    c-0.8,1.4-2.7,1.9-4.1,1.1c-4.5-2.6-9.7-4-15-4C33.3,20,20.3,33,20.3,49.7C20.3,51.4,18.9,52.7,17.3,52.7z"></path>
    </g>
    <g>
      <path d="M13.9,76.7c-0.5,0-1.1-0.1-1.6-0.5c-1.4-0.9-1.8-2.7-1-4.1c0.1-0.2,1.6-3.1,2.4-11c0.2-1.6,1.6-2.8,3.3-2.7    c1.6,0.2,2.8,1.6,2.7,3.3c-1,9.5-2.9,12.9-3.3,13.5C15.8,76.2,14.9,76.7,13.9,76.7z"></path>
    </g>
    <g>
      <path d="M61.2,94.6c-0.6,0-1.2-0.2-1.8-0.6c-1.3-1-1.6-2.8-0.7-4.2c0.1-0.1,8.9-12.8,10-35.4c0.1-1.7,1.5-3,3.1-2.9    c1.7,0.1,2.9,1.5,2.9,3.1C73.6,79.3,64,92.8,63.6,93.4C63,94.2,62.1,94.6,61.2,94.6z"></path>
    </g>
    <g>
      <path d="M71,46.6c-1.3,0-2.5-0.9-2.9-2.2c-2.3-8.1-9.6-13.6-18.2-13.6c-5.4,0-10.3,2-13.8,5.7c-1.1,1.2-3,1.2-4.2,0.1    c-1.2-1.1-1.2-3-0.1-4.2c4.7-4.9,11.1-7.6,18.1-7.6c11.3,0,20.9,7.2,24,18c0.5,1.6-0.5,3.3-2.1,3.7C71.6,46.6,71.3,46.6,71,46.6z"></path>
    </g>
    <g>
      <path d="M21.7,85.5c-0.5,0-1-0.1-1.5-0.4c-1.4-0.8-1.9-2.7-1.1-4.1c0.1-0.1,6-10.8,6-31.3c0-1.8,0.2-3.5,0.5-5.2    c0.3-1.6,1.9-2.7,3.5-2.4c1.6,0.3,2.7,1.9,2.4,3.5c-0.3,1.3-0.4,2.7-0.4,4c0,22.3-6.5,33.9-6.8,34.3C23.7,85,22.7,85.5,21.7,85.5z    "></path>
    </g>
    <g>
      <path d="M49.5,96.4c-0.6,0-1.1-0.2-1.7-0.5c-1.4-0.9-1.8-2.8-0.8-4.2c0.1-0.1,6.2-9.6,9.4-24.5c0.3-1.6,1.9-2.7,3.6-2.3    c1.6,0.3,2.7,1.9,2.3,3.6C58.9,84.6,52.3,94.6,52,95C51.5,95.9,50.5,96.4,49.5,96.4z"></path>
    </g>
    <g>
      <path
        d="M29.7,91.4c-0.6,0-1.2-0.2-1.8-0.6c-1.3-1-1.6-2.8-0.7-4.2c0.1-0.2,8.5-12.2,8.5-36.9c0-8,6.3-14.2,14.2-14.2    c7.9,0,14.3,6.4,14.3,14.2c0,3-0.2,6.1-0.5,9.2c-0.2,1.6-1.7,2.8-3.3,2.7c-1.6-0.2-2.8-1.6-2.7-3.3c0.3-2.8,0.4-5.7,0.4-8.6    c0-4.5-3.7-8.2-8.3-8.2c-4.6,0-8.2,3.6-8.2,8.2c0,26.9-9.2,39.9-9.6,40.4C31.5,90.9,30.6,91.4,29.7,91.4z"></path>
    </g>
    <g>
      <path d="M39.3,94.7c-0.6,0-1.1-0.2-1.6-0.5c-1.4-0.9-1.8-2.8-0.9-4.1c0,0,1.1-1.7,2.5-4.8c0.7-1.5,2.5-2.1,4-1.4    c1.5,0.7,2.1,2.5,1.4,4c-1.6,3.5-2.9,5.4-2.9,5.5C41.3,94.3,40.3,94.7,39.3,94.7z"></path>
    </g>
    <g>
      <path d="M45.9,80c-0.5,0-0.9-0.1-1.4-0.3c-1.5-0.7-2.1-2.6-1.3-4c0-0.1,4-8.3,4-26c0-1.7,1.3-3,3-3s3,1.3,3,3    c0,19.2-4.5,28.3-4.7,28.7C48,79.4,47,80,45.9,80z"></path>
    </g>
  </g>
</svg>
