<?xml version="1.0" encoding="UTF-8"?>
<svg width="40px" height="40px" viewBox="0 0 40 40" version="1.1" xmlns="http://www.w3.org/2000/svg" xmlns:xlink="http://www.w3.org/1999/xlink">
    <!-- Generator: Sketch 42 (36781) - http://www.bohemiancoding.com/sketch -->
    <title>Icon /TimeLine</title>
    <desc>Created with Sketch.</desc>
    <defs></defs>
    <g id="Symbols" stroke="none" stroke-width="1" fill="none" fill-rule="evenodd">
        <g id="Icon-/TimeLine" fill="#FFFFFF">
            <path d="M2.31870968,11.596129 C1.44129032,11.596129 0.72516129,10.7303226 0.72516129,9.66064516 C0.72516129,8.59225806 1.43612903,7.72516129 2.31870968,7.72516129 L25.8270968,7.72516129 C26.7032258,7.72516129 27.4193548,8.59225806 27.4193548,9.66064516 C27.4193548,10.7303226 26.7083871,11.596129 25.8270968,11.596129 L2.31870968,11.596129 Z M37.3393548,18.4025806 C38.4077419,18.4025806 39.2748387,19.2696774 39.2748387,20.3380645 C39.2748387,21.4077419 38.4077419,22.2735484 37.3393548,22.2735484 L8.78967742,22.2735484 C7.72129032,22.2735484 6.85419355,21.4077419 6.85419355,20.3380645 C6.85419355,19.2696774 7.72129032,18.4025806 8.78967742,18.4025806 L37.3393548,18.4025806 Z M25.8270968,28.92 C26.7083871,28.92 27.4193548,29.7858065 27.4193548,30.8554839 C27.4193548,31.923871 26.7083871,32.7909677 25.8270968,32.7909677 L2.31870968,32.7909677 C1.44129032,32.7909677 0.72516129,31.923871 0.72516129,30.8554839 C0.72516129,29.7858065 1.43612903,28.92 2.31870968,28.92 L25.8270968,28.92 Z" id="Combined-Shape"></path>
        </g>
    </g>
</svg>