<?xml version="1.0" encoding="UTF-8"?>
<svg width="40px" height="40px" viewBox="0 0 40 40" version="1.1" xmlns="http://www.w3.org/2000/svg" xmlns:xlink="http://www.w3.org/1999/xlink">
    <!-- Generator: Sketch 42 (36781) - http://www.bohemiancoding.com/sketch -->
    <title>Icon /Wishlist</title>
    <desc>Created with Sketch.</desc>
    <defs></defs>
    <g id="Symbols" stroke="none" stroke-width="1" fill="none" fill-rule="evenodd">
        <g id="Icon-/Wishlist" fill="#FFFFFF">
            <path d="M10.6680946,3 C7.93322596,3 5.19344224,4.05224344 3.11438033,6.16592331 C-1.0409349,10.3890401 -1.03531771,17.2371084 3.11438033,21.4630538 L18.8635727,37.5232022 C19.4835699,38.1589326 20.4981746,38.1589326 21.1181718,37.5232022 C26.3758603,32.1813696 31.6258251,26.8388298 36.8835136,21.49629 C41.0388288,17.2731731 41.0388288,10.4060118 36.8835136,6.18218783 C32.7281984,1.95836385 25.9482518,1.95836385 21.7929365,6.18218783 L19.998947,7.98896336 L18.2049574,6.16592331 C16.1258955,4.05224344 13.4022612,3 10.6680946,3 Z M10.6680946,6.14895165 C12.5800452,6.14895165 14.4856764,6.89782652 15.9672099,8.40335494 L18.8797221,11.3861257 C19.4997193,12.0218561 20.514324,12.0218561 21.1343212,11.3861257 L24.030684,8.43659112 C26.9930488,5.42553428 31.6834013,5.42553428 34.6450639,8.43659112 C37.6074288,11.4469408 37.6074288,16.231537 34.6450639,19.2425938 C29.7658335,24.2032711 24.8781774,29.18092 19.998947,34.1423044 L5.35282997,19.2256222 C2.39046516,16.2096153 2.39046516,11.4137046 5.35282997,8.40335494 C6.8336613,6.89782652 8.75614408,6.14895165 10.6680946,6.14895165 Z" id="Page-1"></path>
        </g>
    </g>
</svg>